<?xml version="1.0" encoding="utf-8"?>
<!-- Generator: Adobe Illustrator 16.0.4, SVG Export Plug-In . SVG Version: 6.00 Build 0)  -->
<!DOCTYPE svg PUBLIC "-//W3C//DTD SVG 1.1//EN" "http://www.w3.org/Graphics/SVG/1.1/DTD/svg11.dtd">
<svg version="1.1" id="Layer_1" xmlns="http://www.w3.org/2000/svg" xmlns:xlink="http://www.w3.org/1999/xlink" x="0px" y="0px"
	 width="100px" height="100px" viewBox="0 0 100 100" enable-background="new 0 0 100 100" xml:space="preserve">
<g>
	<g>
		<path d="M49.606,49.324c-0.083,0-0.167-0.006-0.251-0.016c-1.104-0.138-1.886-1.144-1.748-2.248
			c0.208-1.674,0.44-3.347,0.674-5.019c0.033-0.247,0.069-0.495,0.102-0.744c-6.91,0.562-13.104-1.533-17.449-5.917
			c-5.16-5.21-7.464-13.202-6.485-22.505c0.108-1.025,0.971-1.803,2.001-1.803c0.712,0,1.428-0.032,2.143-0.063
			c1.699-0.074,3.455-0.152,5.23,0.148C45.351,13.093,54.21,22.148,53.571,31.34c-0.264,3.787-0.791,7.584-1.302,11.256
			c-0.23,1.654-0.461,3.308-0.668,4.964C51.474,48.579,50.607,49.324,49.606,49.324z M28.311,15.052
			c-0.415,7.312,1.506,13.477,5.486,17.494c3.614,3.647,8.66,5.284,14.61,4.708c0.179-0.016,0.352-0.009,0.515,0.017
			c0.261-2.071,0.487-4.152,0.629-6.208C50.042,24,42.535,16.703,33.156,15.128c-1.356-0.229-2.828-0.165-4.385-0.096
			C28.618,15.039,28.464,15.045,28.311,15.052z"/>
	</g>
	<g>
		<path d="M49.338,100c-0.476,0-0.942-0.169-1.312-0.485l-13.05-11.187c-0.295-0.253-0.511-0.584-0.621-0.956
			c-3.752-12.604-7.73-16.13-20.271-17.962c-2.377-0.348-4.737-0.855-7.02-1.345c-1.052-0.224-2.102-0.45-3.152-0.661
			c-1.093-0.218-1.799-1.278-1.581-2.37C2.34,65,2.348,64.962,2.355,64.927c-0.106-0.409-0.083-0.854,0.09-1.274
			c2.798-6.752,8.833-7.667,13.682-8.4c2.092-0.317,4.068-0.616,5.73-1.29c8.884-3.606,18.912-5.614,30.657-6.135
			c9.134-0.403,16.95,2.753,24.485,5.811c5.128,2.08,9.971,4.044,15.197,4.951c1.845,0.32,2.885,2.074,3.89,3.771
			c0.389,0.659,0.792,1.339,1.219,1.906c0.39,0.519,0.505,1.195,0.309,1.815c-0.194,0.619-0.679,1.107-1.296,1.309
			c-20.672,6.735-36.269,14.675-45.2,31.538c-0.287,0.541-0.802,0.922-1.404,1.036C49.588,99.988,49.462,100,49.338,100z
			 M38.044,85.654l10.736,9.201C58.096,78.96,73.099,70.964,92.603,64.38c-0.382-0.643-0.933-1.569-1.247-1.85
			c-5.594-0.991-10.818-3.111-15.87-5.162c-7.46-3.026-14.523-5.901-22.791-5.518c-11.28,0.501-20.872,2.413-29.323,5.844
			c-2.1,0.854-4.409,1.204-6.642,1.54c-4.161,0.631-7.814,1.184-9.911,4.66c0.362,0.079,0.728,0.156,1.089,0.234
			c2.22,0.476,4.515,0.967,6.76,1.298C28.551,67.454,33.879,72.021,38.044,85.654z"/>
	</g>
	<g>
		<path d="M52.625,35.232c-1.104,0-2.002-0.888-2.014-1.993c-0.012-1.112,0.88-2.022,1.993-2.034
			c15.933-0.166,24.793-8.979,27.043-26.927C66,2.745,56.43,8.215,50.42,20.989c-0.474,1.004-1.671,1.439-2.68,0.965
			c-1.006-0.473-1.437-1.672-0.965-2.679C53.826,4.288,65.74-2.006,82.173,0.557c1.054,0.164,1.795,1.121,1.693,2.182
			c-2.051,21.367-12.555,32.299-31.22,32.493C52.639,35.232,52.631,35.232,52.625,35.232z"/>
	</g>
	<g>
		<path d="M54.635,28.185c-0.405,0-0.814-0.122-1.17-0.375c-0.904-0.647-1.113-1.904-0.466-2.809l5.033-7.045
			c0.646-0.904,1.905-1.113,2.809-0.469c0.904,0.646,1.114,1.903,0.468,2.809l-5.034,7.047
			C55.882,27.892,55.262,28.185,54.635,28.185z"/>
	</g>
</g>
</svg>
