<?xml version="1.0" encoding="utf-8"?>
<!-- Generator: Adobe Illustrator 16.0.4, SVG Export Plug-In . SVG Version: 6.00 Build 0)  -->
<!DOCTYPE svg PUBLIC "-//W3C//DTD SVG 1.1//EN" "http://www.w3.org/Graphics/SVG/1.1/DTD/svg11.dtd">
<svg version="1.1" id="Layer_1" xmlns="http://www.w3.org/2000/svg" xmlns:xlink="http://www.w3.org/1999/xlink" x="0px" y="0px"
	 width="100px" height="100px" viewBox="0 0 100 100" enable-background="new 0 0 100 100" xml:space="preserve">
<g>
	<g>
		<path d="M72.613,96.402c-23.827,0-29.715-20.691-26.15-35.974c3.72-15.947,26.15-42.834,26.15-42.834S93.318,45.94,98.556,60.428
			C102.704,71.899,99.038,96.402,72.613,96.402z M72.613,22.573c0,0-18.311,24.37-21.701,38.895
			c-3.086,13.238-0.339,21.379,9.192,27.222c7.479,4.584,19.924,4.104,27.186-1.056c6.4-4.546,10.884-15.333,6.968-26.166
			C89.384,47.992,72.613,22.573,72.613,22.573z"/>
	</g>
	<g>
		<path d="M17.319,53.945c-15.224,0-18.984-13.22-16.708-22.983C2.988,20.774,17.319,3.598,17.319,3.598
			s13.228,18.109,16.572,27.364C36.543,38.291,34.199,53.945,17.319,53.945z M17.324,8.242c0,0-10.926,14.539-12.95,23.205
			c-1.839,7.9-0.201,12.756,5.487,16.244c4.461,2.733,11.886,2.448,16.218-0.632c3.82-2.711,6.496-9.149,4.157-15.612
			C27.331,23.406,17.324,8.242,17.324,8.242z"/>
	</g>
	<g>
		<path d="M22.356,95.78c-9.109,0-11.359-7.909-9.998-13.749c1.424-6.097,9.998-16.374,9.998-16.374s7.913,10.834,9.915,16.374
			C33.858,86.414,32.454,95.78,22.356,95.78z M22.363,70.085c0,0-5.664,7.538-6.715,12.031c-0.953,4.095-0.105,6.614,2.845,8.422
			c2.312,1.417,6.162,1.27,8.409-0.328c1.981-1.406,3.367-4.742,2.155-8.094C27.55,77.947,22.363,70.085,22.363,70.085z"/>
	</g>
</g>
</svg>
