<?xml version="1.0" encoding="utf-8"?>
<!-- Generator: Adobe Illustrator 16.0.4, SVG Export Plug-In . SVG Version: 6.00 Build 0)  -->
<!DOCTYPE svg PUBLIC "-//W3C//DTD SVG 1.1//EN" "http://www.w3.org/Graphics/SVG/1.1/DTD/svg11.dtd">
<svg version="1.1" id="Layer_1" xmlns="http://www.w3.org/2000/svg" xmlns:xlink="http://www.w3.org/1999/xlink" x="0px" y="0px"
	 width="100px" height="100px" viewBox="0 0 100 100" enable-background="new 0 0 100 100" xml:space="preserve">
<g>
	<g>
		<path d="M63.437,92.354c-7.259,0.002-14.042-2.172-19.387-4.279c-3.452-1.363-5.826-3.653-7.515-6.303
			c-0.22,0.285-0.52,0.512-0.884,0.641c-16.035,5.742-22.894-4.154-28.942-12.884c-2.023-2.921-3.936-5.679-6.154-7.951
			c-0.41-0.419-0.607-1-0.543-1.58c0.068-0.581,0.394-1.1,0.886-1.415c6.072-3.881,13.835-5.91,19.773-5.172
			c9.541,1.186,13.277,4.855,15.383,15.105c0.379,1.851,0.775,3.636,1.256,5.305c2.014-1.28,3.543-3.156,5.155-5.138
			c2.271-2.792,4.85-5.958,9.176-7.676c14.654-5.821,27.677-3.162,40.979,8.359c1.174,1.015,2.604,1.857,4.12,2.749
			c0.777,0.457,1.57,0.925,2.365,1.432c0.574,0.368,0.914,1.009,0.895,1.692c-0.019,0.681-0.395,1.303-0.988,1.637
			c-2.357,1.328-4.504,2.49-6.504,3.573c-4.077,2.208-7.598,4.114-10.929,6.378C75.567,90.914,69.345,92.354,63.437,92.354z
			 M38.637,77.531c1.411,3.139,3.464,5.597,6.84,6.931c14.105,5.565,24.883,5.295,33.917-0.848
			c3.493-2.375,7.094-4.324,11.265-6.582c1.123-0.609,2.293-1.242,3.521-1.917c-1.411-0.834-2.837-1.718-4.103-2.813
			C77.825,61.689,66.41,59.32,53.074,64.618c-3.385,1.345-5.432,3.858-7.598,6.517c-1.855,2.28-3.774,4.638-6.59,6.272
			C38.804,77.455,38.721,77.497,38.637,77.531z M4.989,60.69c1.764,2.083,3.361,4.383,4.912,6.627
			c6.017,8.679,11.206,16.183,24.441,11.439c0.182-0.064,0.366-0.101,0.55-0.112c-1.385-3.204-2.079-6.593-2.644-9.347
			c-1.765-8.586-4.243-11.062-12.056-12.033C15.801,56.722,9.925,58.074,4.989,60.69z"/>
	</g>
	<g>
		<path d="M63.157,60.193c-0.161,0-0.324-0.019-0.485-0.061c-1.039-0.267-1.665-1.326-1.397-2.365
			c6.158-23.938,2.251-29.976-9.837-45.275c-1.53,1.488-3.09,2.949-4.608,4.373c-4.765,4.466-9.348,8.624-12.955,13.599
			c-8.936,12.325,0.489,32.159,0.489,32.159s-6.313-8.202-6.895-9.271c-4.29-7.909-3.148-16.629,3.299-25.22
			c3.894-5.186,8.729-9.718,13.404-14.1c2.014-1.888,4.097-3.841,6.073-5.815c0.393-0.393,0.937-0.605,1.486-0.564
			c0.552,0.032,1.066,0.3,1.411,0.734c13.264,16.747,18.755,23.68,11.895,50.349C64.812,59.61,64.022,60.193,63.157,60.193z"/>
	</g>
	<g>
		<path d="M38.709,81.149c-0.518,0-1.036-0.207-1.417-0.612c-0.734-0.784-0.694-2.013,0.087-2.747
			c0.825-0.774,1.62-1.589,2.417-2.403c3.3-3.382,22.476-4.064,21.442-3.776c-4.289,1.195-20.675,3.19-21.202,9.013
			C39.991,81.136,39.185,81.149,38.709,81.149z"/>
	</g>
	<g>
		<path d="M38.413,75.759c0.429,0.288,0.743,0.749,0.835,1.297c0.174,1.06-0.547,2.058-1.602,2.232
			c-1.119,0.184-2.23,0.419-3.346,0.652c-4.626,0.969-10.288-6.161-9.381-5.578c4.903,3.156,8.416,5.635,12.097,1.094
			C37.34,75.056,38.015,75.494,38.413,75.759z"/>
	</g>
	<g>
		<path d="M35.561,74.835c17.514-10.218,16.362-37.699,16.362-37.699s7.601,17.723-11.362,37.466
			C40.329,74.843,35.875,74.835,35.561,74.835z"/>
	</g>
</g>
</svg>
