<?xml version="1.0" encoding="utf-8"?>
<!-- Generator: Adobe Illustrator 16.0.4, SVG Export Plug-In . SVG Version: 6.00 Build 0)  -->
<!DOCTYPE svg PUBLIC "-//W3C//DTD SVG 1.1//EN" "http://www.w3.org/Graphics/SVG/1.1/DTD/svg11.dtd">
<svg version="1.1" id="Layer_1" xmlns="http://www.w3.org/2000/svg" xmlns:xlink="http://www.w3.org/1999/xlink" x="0px" y="0px"
	 width="100px" height="100px" viewBox="0 0 100 100" enable-background="new 0 0 100 100" xml:space="preserve">
<g>
	<g>
		<path d="M54.057,100c-2.378,0-4.832-0.63-7.227-1.246c-1.351-0.349-2.631-0.676-3.858-0.887c-7.52-1.282-15.034-2.593-23.02-3.987
			L9.201,92.007c-0.695-0.122-1.279-0.594-1.545-1.248L1.577,75.645C1.156,74.6,1.66,73.414,2.705,72.992l18.739-7.589
			c4.11-10.064,12.964-16.216,23.852-16.515c1.501-0.04,3.004-0.231,4.597-0.435c1.836-0.233,3.733-0.475,5.665-0.475
			c0.638,0,1.306-0.02,1.985-0.042c3.163-0.096,6.748-0.206,9.251,1.59c5.289,3.778,10.246,8.121,15.043,12.323
			c1.879,1.646,3.757,3.293,5.659,4.91c0.544,0.462,0.785,1.15,0.703,1.81c2.661-1.643,5.594-1.74,9.457,0.813
			c0.869,0.574,1.166,1.71,0.688,2.637C89.568,89.07,73.812,94.797,57.064,99.602C56.084,99.884,55.077,100,54.057,100z
			 M11.021,88.179l9.632,1.679c7.981,1.393,15.49,2.705,23.004,3.987c1.396,0.237,2.816,0.602,4.19,0.955
			c3.023,0.779,5.878,1.517,8.091,0.879c15.259-4.379,29.63-9.522,37.847-23.817c-2.042-0.919-3.537-0.327-6.268,2.749
			c-10.625,11.98-28.902,13.431-43.462,3.455c-0.45-0.309-0.758-0.784-0.854-1.32c-0.1-0.536,0.024-1.09,0.335-1.537
			c3.589-5.121,8.716-3.648,12.838-2.47c4.604,1.322,7.357,1.898,9.628-1.551C54.704,64.935,42.04,63.364,26.33,66.24
			c-0.274,0.052-0.546,0.042-0.801-0.012c-0.209,0.473-0.406,0.957-0.592,1.453c-0.201,0.534-0.616,0.961-1.146,1.176L6.126,76.012
			L11.021,88.179z M48.505,76.056c12.437,7.286,27.228,5.691,35.959-4.154c0.496-0.56,0.99-1.083,1.489-1.557
			c-0.393-0.042-0.777-0.199-1.101-0.474c-1.918-1.629-3.812-3.289-5.707-4.95c-4.721-4.134-9.601-8.41-14.726-12.074
			c-1.385-0.991-4.235-0.901-6.751-0.83c-0.724,0.022-1.434,0.044-2.111,0.044c-1.675,0-3.363,0.215-5.151,0.442
			c-1.62,0.206-3.297,0.419-4.999,0.467c-7.304,0.199-13.367,3.345-17.351,8.834c16.394-2.591,29.714-0.383,41.75,6.867
			c0.895,0.541,1.237,1.67,0.793,2.617c-4.055,8.616-10.583,6.738-15.349,5.375C51.978,75.727,50.002,75.308,48.505,76.056z"/>
	</g>
	<g>
		<path d="M49.434,51.987c-1.052,0-1.945-0.809-2.033-1.876l-1.252-15.435c-0.048-0.561,0.14-1.115,0.519-1.533
			c0.375-0.417,0.907-0.661,1.47-0.673c17.651-0.393,27.891-9.29,31.254-27.179C66.828,1.578,57.702,6.168,49.143,20.384
			c-0.582,0.967-1.84,1.278-2.801,0.696c-0.967-0.581-1.277-1.836-0.695-2.801C55.498,1.914,67.165-3.273,82.369,1.959
			c0.937,0.323,1.507,1.271,1.351,2.25c-3.213,20.25-14.424,31.092-33.331,32.252l1.082,13.319c0.09,1.124-0.745,2.109-1.869,2.201
			C49.546,51.985,49.489,51.987,49.434,51.987z"/>
	</g>
	<g>
		<path d="M47.396,42.803c-0.027,0-0.052,0-0.079-0.001C31.613,42.211,26.433,36.7,20.923,14.725
			c-0.138-0.545-0.042-1.124,0.261-1.598c0.303-0.474,0.789-0.801,1.344-0.905c8.811-1.652,16.756-0.03,22.372,4.579
			c4.829,3.964,7.526,9.928,7.599,16.796c0.012,1.127-0.894,2.05-2.02,2.062c-0.008,0-0.016,0-0.022,0
			c-1.118,0-2.028-0.9-2.041-2.021c-0.06-5.721-2.171-10.452-6.105-13.683c-4.218-3.464-10.146-4.87-16.87-4.058
			c5.102,19.386,9.519,22.352,22.031,22.822c1.128,0.043,2.007,0.991,1.963,2.117C49.395,41.938,48.487,42.803,47.396,42.803z"/>
	</g>
	<g>
		<path d="M48.415,38.72c-0.574,0-1.146-0.242-1.549-0.712l-6.123-7.144c-0.734-0.856-0.635-2.145,0.219-2.878
			c0.859-0.733,2.147-0.632,2.879,0.221l6.123,7.144c0.736,0.856,0.636,2.145-0.221,2.878C49.358,38.559,48.886,38.72,48.415,38.72z
			"/>
	</g>
	<g>
		<path d="M51.478,28.515c-0.522,0-1.045-0.199-1.443-0.598c-0.798-0.796-0.798-2.089,0-2.886l7.142-7.142
			c0.798-0.797,2.09-0.797,2.887,0c0.798,0.796,0.798,2.089,0,2.886l-7.143,7.142C52.521,28.316,51.999,28.515,51.478,28.515z"/>
	</g>
</g>
</svg>
